<?xml version="1.0" standalone="no"?>
<!DOCTYPE svg PUBLIC "-//W3C//DTD SVG 20010904//EN"
 "http://www.w3.org/TR/2001/REC-SVG-20010904/DTD/svg10.dtd">
<svg version="1.0" xmlns="http://www.w3.org/2000/svg"
 width="1200.000000pt" height="1200.000000pt" viewBox="0 0 1200.000000 1200.000000"
 preserveAspectRatio="xMidYMid meet">
<metadata>
Created by potrace 1.11, written by Peter Selinger 2001-2013
</metadata>
<g transform="translate(0.000000,1200.000000) scale(0.100000,-0.100000)"
fill="#000000" stroke="none">
<path d="M0 6000 l0 -6000 6000 0 6000 0 0 6000 0 6000 -6000 0 -6000 0 0
-6000z m6127 2848 c-3 -139 -10 -278 -15 -308 -6 -30 -15 -89 -22 -130 -21
-139 -81 -417 -111 -515 -21 -70 -100 -312 -109 -330 -4 -11 -27 -67 -49 -125
-38 -101 -61 -155 -119 -285 -44 -98 -190 -383 -233 -452 -21 -36 -39 -67 -39
-70 0 -2 -16 -29 -35 -59 -19 -30 -35 -57 -35 -59 0 -9 -259 -397 -356 -536
-111 -158 -228 -323 -293 -414 -361 -506 -616 -966 -733 -1320 -10 -31 -11
-36 -48 -170 -112 -409 -106 -935 16 -1345 74 -249 183 -489 311 -685 75 -115
136 -197 205 -274 26 -30 46 -56 44 -59 -11 -10 -240 140 -361 237 -265 212
-485 457 -637 711 -69 116 -113 199 -143 270 -15 36 -33 79 -40 95 -89 206
-148 448 -187 770 -13 106 -19 536 -8 550 4 6 10 51 14 100 13 193 60 455 121
680 9 33 20 74 25 90 42 157 160 479 231 633 16 35 29 66 29 68 0 7 153 313
192 383 62 112 236 401 277 459 11 15 162 248 337 517 174 270 392 603 483
740 91 138 170 257 176 266 5 9 19 29 29 45 11 16 29 45 41 64 12 19 34 54 48
77 15 24 27 45 27 48 0 3 15 29 33 58 69 107 227 416 227 442 0 8 5 15 10 15
6 0 10 9 10 20 0 19 7 20 140 20 118 0 140 2 140 15 0 13 30 15 206 15 l207 0
-6 -252z m1128 -1028 c3 -5 1 -10 -4 -10 -6 0 -11 5 -11 10 0 6 2 10 4 10 3 0
8 -4 11 -10z m75 -174 c-1 -16 -29 36 -30 54 0 8 7 2 15 -14 8 -15 15 -33 15
-40z m34 -68 c28 -57 31 -68 16 -68 -5 0 -10 6 -10 13 0 7 -9 32 -20 55 -11
22 -20 44 -20 47 0 15 11 0 34 -47z m53 -157 c-3 -11 -5 -9 -6 6 0 12 -5 25
-11 28 -5 3 -10 16 -9 28 0 18 3 16 15 -12 8 -18 13 -41 11 -50z m20 -53 c-3
-8 -6 -5 -6 6 -1 11 2 17 5 13 3 -3 4 -12 1 -19z m23 -54 c0 -8 -4 -12 -10 -9
-5 3 -10 10 -10 16 0 5 5 9 10 9 6 0 10 -7 10 -16z m20 -71 c0 -22 -2 -25 -10
-13 -13 20 -13 40 0 40 6 0 10 -12 10 -27z m20 -84 c0 -11 -4 -17 -10 -14 -5
3 -10 13 -10 21 0 8 5 14 10 14 6 0 10 -9 10 -21z m18 -229 c0 -52 -4 -108 -8
-125 -5 -18 -8 31 -8 120 0 89 3 140 8 125 4 -14 8 -68 8 -120z m-26 -270 c-6
-19 -16 -60 -22 -90 -39 -178 -162 -471 -281 -671 -18 -29 -37 -63 -43 -74
-27 -47 -78 -125 -82 -125 -6 0 5 20 79 149 88 154 199 390 245 521 58 165 70
208 99 365 l7 40 4 -40 c2 -22 -1 -56 -6 -75z m836 -1067 c140 -185 226 -337
292 -513 17 -47 35 -95 41 -108 5 -13 9 -33 9 -46 0 -12 3 -26 7 -30 30 -29
44 -440 22 -615 -22 -183 -41 -298 -59 -371 -5 -19 -16 -66 -25 -105 -9 -38
-20 -81 -24 -95 -5 -14 -14 -45 -22 -70 -7 -25 -16 -49 -21 -54 -4 -6 -8 -18
-8 -28 0 -10 -4 -26 -9 -36 -5 -9 -19 -44 -32 -77 -54 -144 -162 -366 -219
-445 -11 -15 -20 -31 -20 -35 0 -13 -130 -197 -208 -295 -89 -112 -335 -361
-442 -448 -96 -78 -345 -248 -435 -297 -149 -81 -277 -142 -365 -174 -19 -7
-46 -18 -60 -23 -52 -22 -77 -30 -160 -56 -31 -9 -92 -24 -215 -52 -78 -17
-101 -22 -160 -30 -33 -4 -80 -11 -104 -16 l-44 -7 6 44 c3 24 22 91 41 149
148 455 362 783 1000 1535 285 337 420 503 555 684 91 122 261 374 261 387 0
3 8 18 19 32 59 84 189 365 234 507 69 219 86 335 84 573 -1 105 -1 192 0 192
1 0 29 -35 61 -77z m-3101 -2825 c-3 -8 -6 -5 -6 6 -1 11 2 17 5 13 3 -3 4
-12 1 -19z m-7 -69 c0 -5 -4 -9 -10 -9 -5 0 -10 7 -10 16 0 8 5 12 10 9 6 -3
10 -10 10 -16z m-29 -97 c-6 -2 -11 -25 -11 -51 0 -26 -5 -52 -12 -59 -17 -17
-17 -521 1 -583 14 -51 11 -101 -4 -64 -5 11 -20 38 -35 60 -25 39 -77 142
-117 235 -11 25 -27 77 -37 115 -9 39 -21 86 -26 105 -5 19 -11 53 -14 75 -4
22 -9 50 -12 63 -6 22 -6 22 110 22 85 0 118 3 120 13 2 6 9 30 14 52 25 92
26 94 30 55 2 -19 -1 -36 -7 -38z"/>
</g>
</svg>
